ModelForces
version=1
nRows=4
nColumns=157
inDegrees=no

This file contains the forces exerted on a model during a simulation.

A force is a generalized force, meaning that it can be either a force (N) or a torque (Nm).

Units are S.I. units (second, meters, Newtons, ...)
Angles are in degrees.

endheader
time	glut_med1_r	glut_med2_r	glut_med3_r	glut_min1_r	glut_min2_r	glut_min3_r	semimem_r	semiten_r	bifemlh_r	bifemsh_r	sar_r	add_long_r	add_brev_r	add_mag1_r	add_mag2_r	add_mag3_r	tfl_r	pect_r	grac_r	glut_max1_r	glut_max2_r	glut_max3_r	iliacus_r	psoas_r	quad_fem_r	gem_r	peri_r	rect_fem_r	vas_med_r	vas_int_r	vas_lat_r	med_gas_r	lat_gas_r	soleus_r	tib_post_r	flex_dig_r	flex_hal_r	tib_ant_r	per_brev_r	per_long_r	per_tert_r	ext_dig_r	ext_hal_r	glut_med1_l	glut_med2_l	glut_med3_l	glut_min1_l	glut_min2_l	glut_min3_l	semimem_l	semiten_l	bifemlh_l	bifemsh_l	sar_l	add_long_l	add_brev_l	add_mag1_l	add_mag2_l	add_mag3_l	tfl_l	pect_l	grac_l	glut_max1_l	glut_max2_l	glut_max3_l	iliacus_l	psoas_l	quad_fem_l	gem_l	peri_l	rect_fem_l	vas_med_l	vas_int_l	vas_lat_l	med_gas_l	lat_gas_l	soleus_l	tib_post_l	flex_dig_l	flex_hal_l	tib_ant_l	per_brev_l	per_long_l	per_tert_l	ext_dig_l	ext_hal_l	ercspn_r	ercspn_l	intobl_r	intobl_l	extobl_r	extobl_l	femur_lat_meniscii_r.femur_lat_r.force.X	femur_lat_meniscii_r.femur_lat_r.force.Y	femur_lat_meniscii_r.femur_lat_r.force.Z	femur_lat_meniscii_r.femur_lat_r.torque.X	femur_lat_meniscii_r.femur_lat_r.torque.Y	femur_lat_meniscii_r.femur_lat_r.torque.Z	femur_lat_meniscii_r.meniscus_lat_r.force.X	femur_lat_meniscii_r.meniscus_lat_r.force.Y	femur_lat_meniscii_r.meniscus_lat_r.force.Z	femur_lat_meniscii_r.meniscus_lat_r.torque.X	femur_lat_meniscii_r.meniscus_lat_r.torque.Y	femur_lat_meniscii_r.meniscus_lat_r.torque.Z	femur_med_meniscii_r.femur_med_r.force.X	femur_med_meniscii_r.femur_med_r.force.Y	femur_med_meniscii_r.femur_med_r.force.Z	femur_med_meniscii_r.femur_med_r.torque.X	femur_med_meniscii_r.femur_med_r.torque.Y	femur_med_meniscii_r.femur_med_r.torque.Z	femur_med_meniscii_r.meniscus_med_r.force.X	femur_med_meniscii_r.meniscus_med_r.force.Y	femur_med_meniscii_r.meniscus_med_r.force.Z	femur_med_meniscii_r.meniscus_med_r.torque.X	femur_med_meniscii_r.meniscus_med_r.torque.Y	femur_med_meniscii_r.meniscus_med_r.torque.Z	femur_med_tibia_r.tibia_upper_r.force.X	femur_med_tibia_r.tibia_upper_r.force.Y	femur_med_tibia_r.tibia_upper_r.force.Z	femur_med_tibia_r.tibia_upper_r.torque.X	femur_med_tibia_r.tibia_upper_r.torque.Y	femur_med_tibia_r.tibia_upper_r.torque.Z	femur_med_tibia_r.femur_med_r.force.X	femur_med_tibia_r.femur_med_r.force.Y	femur_med_tibia_r.femur_med_r.force.Z	femur_med_tibia_r.femur_med_r.torque.X	femur_med_tibia_r.femur_med_r.torque.Y	femur_med_tibia_r.femur_med_r.torque.Z	femur_lat_tibia_r.tibia_upper_r.force.X	femur_lat_tibia_r.tibia_upper_r.force.Y	femur_lat_tibia_r.tibia_upper_r.force.Z	femur_lat_tibia_r.tibia_upper_r.torque.X	femur_lat_tibia_r.tibia_upper_r.torque.Y	femur_lat_tibia_r.tibia_upper_r.torque.Z	femur_lat_tibia_r.femur_lat_r.force.X	femur_lat_tibia_r.femur_lat_r.force.Y	femur_lat_tibia_r.femur_lat_r.force.Z	femur_lat_tibia_r.femur_lat_r.torque.X	femur_lat_tibia_r.femur_lat_r.torque.Y	femur_lat_tibia_r.femur_lat_r.torque.Z	aACL_R	pACL_R	aPCL_R	pPCL_R	aMCL_R	mMCL_R	pMCL_R	aLCL_R	mLCL_R	pLCL_R	ground_prescribedForce_fx	ground_prescribedForce_fy	ground_prescribedForce_fz	ground_prescribedForce_px	ground_prescribedForce_py	ground_prescribedForce_pz
      0.74795484	      7.54759254	      5.66550634	      6.06444852	      2.65882405	      3.17882561	      3.19259059	      0.00000000	      3.14425644	      3.51595570	      5.14454170	      1.46896308	      5.61303362	      4.14088887	      2.91879753	      2.45361398	      3.98725208	      2.84467012	      2.23861921	      1.36374035	      3.65591490	      5.55576100	      4.14723209	     22.64715684	     12.96635407	      3.62651866	      2.85424450	      4.08984651	    244.92273049	     43.05996739	     86.25441482	     62.44831583	      0.00000000	      0.00000000	     11.45533242	     13.36513039	      2.59211679	      3.06746399	     12.17194765	      3.82299392	      7.81014140	      9.39005484	      7.77576408	      1.65682204	      7.54759254	      5.66550634	      6.06444852	      2.65882405	      3.17882561	      3.19259059	      8.74472879	      4.08304261	      7.68246741	      7.21571100	      1.51967962	      5.61303362	      4.14088887	      2.91879753	      2.45361398	      3.98725208	      4.09689450	      2.23861921	      1.55863591	      3.65591490	      5.55576100	      4.14723209	     22.64715684	     12.96635407	      3.62651866	      2.85424450	      4.08984651	     10.66664215	      6.59238950	      7.56199152	      8.13118603	     13.95258140	      6.47850448	     31.08553239	     42.35889382	      2.58039266	      2.83869340	      8.45140112	      4.33381075	     12.44621825	      2.00580707	      5.36384433	      1.70251441	     25.00553700	     25.00553700	      8.99973801	      8.99973801	     26.80437377	     26.80437377	    201.05229275	      1.97306046	     37.23849408	    -15.10769992	      4.95082066	     81.67819124	   -201.05229275	     -1.97306046	    -37.23849408	      0.16031846	     -6.86399680	     -0.87524254	     65.45715063	    -45.44183154	    -13.36759423	      4.57909656	     -1.19197134	     26.38477109	    -65.45715063	     45.44183154	     13.36759423	      0.59639893	      1.29356142	     -1.38724775	   -621.24483823	     37.02078651	    102.92006103	      0.14428887	     10.97396162	     -3.02886284	    621.24483823	    -37.02078651	   -102.92006103	     41.03318627	    -10.69044293	    251.48186159	    -50.75892328	     -8.42910745	    -15.03502188	      0.31370962	     -1.90165450	      0.00725487	     50.75892328	      8.42910745	     15.03502188	     -6.31625419	      1.25853598	     20.61816337	     43.74200218	     13.46106026	    830.91449473	    363.28126423	     41.01916544	      1.14536120	      0.00000000	      0.00000000	      0.00000000	      0.00000000	      0.00000000	   -110.00000000	      0.00000000	      0.03000000	     -0.03000000	      0.00000000
      0.74946287	      7.54755271	      5.66547889	      6.06441877	      2.65881171	      3.17881227	      3.19257377	      0.00000000	      3.14351595	      3.51465008	      5.14330881	      1.46941462	      5.61300611	      4.14086983	      2.91878349	      2.45360189	      3.98723032	      2.84591200	      2.23860875	      1.36350811	      3.65589720	      5.55573402	      4.14721158	     22.64710707	     12.96629812	      3.62650147	      2.85423646	      4.08981414	    244.86739155	     43.03268390	     86.20205106	     62.41579945	      0.00000000	      0.00000000	     11.46452459	     13.35584896	      2.58333269	      3.06120441	     12.18046164	      3.82679313	      7.81927272	      9.39490833	      7.80268130	      1.66526485	      7.54755271	      5.66547889	      6.06441877	      2.65881171	      3.17881227	      3.19257377	      8.74467067	      4.08302126	      7.68241910	      7.21567677	      1.51967260	      5.61300611	      4.14086983	      2.91878349	      2.45360189	      3.98723032	      4.09688105	      2.23860875	      1.55862858	      3.65589720	      5.55573402	      4.14721158	     22.64710707	     12.96629812	      3.62650147	      2.85423646	      4.08981414	     10.66657641	      6.59235683	      7.56195333	      8.13114517	     13.95242846	      6.47843333	     31.08528719	     42.35879824	      2.57916012	      2.83812786	      8.45135167	      4.33378104	     12.44614476	      2.00579839	      5.36443060	      1.70267369	     25.00542071	     25.00542071	      8.99969243	      8.99969243	     26.80433282	     26.80433282	    204.58683684	      1.94860959	     37.54122552	    -15.22887478	      5.03605074	     83.11572508	   -204.58683684	     -1.94860959	    -37.54122552	      0.15981691	     -6.97266466	     -0.89399297	     66.80176811	    -46.01547811	    -13.56126597	      4.64618248	     -1.21526809	     26.92374154	    -66.80176811	     46.01547811	     13.56126597	      0.60469251	      1.31669867	     -1.40249910	   -625.63921900	     37.35145413	    103.52314003	      0.14662530	     11.04841704	     -3.05234665	    625.63921900	    -37.35145413	   -103.52314003	     41.27165116	    -10.76593292	    253.26062796	    -50.78169085	     -8.43237529	    -15.03745932	      0.31381000	     -1.90232479	      0.00722801	     50.78169085	      8.43237529	     15.03745932	     -6.31732195	      1.25909066	     20.62740667	     43.54524345	     13.22790276	    830.68150261	    362.50475320	     40.38605729	      0.49139473	      0.00000000	      0.00000000	      0.00000000	      0.00000000	      0.00000000	   -110.00000000	      0.00000000	      0.03000000	     -0.03000000	      0.00000000
      0.75097090	      7.54751363	      5.66545196	      6.06438959	      2.65879961	      3.17879918	      3.19255728	      0.00000000	      3.14413199	      3.51550971	      5.14431797	      1.46861095	      5.61297912	      4.14085116	      2.91876972	      2.45359004	      3.98720898	      2.84516046	      2.23859850	      1.36371062	      3.65587984	      5.55570756	      4.14719147	     22.64705826	     12.96624325	      3.62648461	      2.85422857	      4.08978240	    244.94216587	     43.06619448	     86.26806079	     62.44617156	      0.00000000	      0.00000000	     11.46084225	     13.34580707	      2.57465790	      3.05420788	     12.19289555	      3.82995851	      7.82752581	      9.40272420	      7.82971675	      1.67450696	      7.54751363	      5.66545196	      6.06438959	      2.65879961	      3.17879918	      3.19255728	      8.74461367	      4.08300033	      7.68237171	      7.21564320	      1.51966572	      5.61297912	      4.14085116	      2.91876972	      2.45359004	      3.98720898	      4.09686786	      2.23859850	      1.55862140	      3.65587984	      5.55570756	      4.14719147	     22.64705826	     12.96624325	      3.62648461	      2.85422857	      4.08978240	     10.66651193	      6.59232479	      7.56191586	      8.13110509	     13.95227844	      6.47836353	     31.08504670	     42.35870449	      2.57792430	      2.83756191	      8.45130317	      4.33375191	     12.44607268	      2.00578988	      5.36501865	      1.70283330	     25.00530665	     25.00530665	      8.99964772	      8.99964772	     26.80429267	     26.80429267	    199.16016291	      2.00362617	     37.06659093	    -15.03927003	      4.90510587	     80.90821107	   -199.16016291	     -2.00362617	    -37.06659093	      0.16107622	     -6.80503537	     -0.86442564	     64.77215244	    -45.16799829	    -13.27151484	      4.54559870	     -1.18019275	     26.11036131	    -64.77215244	     45.16799829	     13.27151484	      0.59253890	      1.28207107	     -1.38020834	   -619.64806085	     36.89506807	    102.65102076	      0.14359399	     10.94656008	     -3.02026632	    619.64806085	    -36.89506807	   -102.65102076	     40.92636482	    -10.66288491	    250.83518262	    -50.33480750	     -8.36317856	    -14.91401806	      0.31122751	     -1.88590000	      0.00736699	     50.33480750	      8.36317856	     14.91401806	     -6.26545975	      1.24810281	     20.44581632	     43.81928979	     13.56790523	    831.12410541	    363.74242369	     41.31967684	      1.46580005	      0.00000000	      0.00000000	      0.00000000	      0.00000000	      0.00000000	   -110.00000000	      0.00000000	      0.03000000	     -0.03000000	      0.00000000
      0.75230842	      7.54747961	      5.66542852	      6.06436418	      2.65878907	      3.17878779	      3.19254291	      0.00000000	      3.14309152	      3.51373859	      5.14253983	      1.46933066	      5.61295562	      4.14083490	      2.91875773	      2.45357972	      3.98719040	      2.84675505	      2.23858957	      1.36337614	      3.65586473	      5.55568452	      4.14717395	     22.64701575	     12.96619547	      3.62646992	      2.85422170	      4.08975476	    244.85732037	     43.02636791	     86.19213442	     62.40166530	      0.00000000	      0.00000000	     11.47262058	     13.33913090	      2.56749049	      3.04815033	     12.19917092	      3.83333636	      7.83566326	      9.40618336	      7.85101808	      1.68239952	      7.54747961	      5.66542852	      6.06436418	      2.65878907	      3.17878779	      3.19254291	      8.74456404	      4.08298210	      7.68233045	      7.21561396	      1.51965972	      5.61295562	      4.14083490	      2.91875773	      2.45357972	      3.98719040	      4.09685637	      2.23858957	      1.55861514	      3.65586473	      5.55568452	      4.14717395	     22.64701575	     12.96619547	      3.62646992	      2.85422170	      4.08975476	     10.66645578	      6.59229689	      7.56188324	      8.13107019	     13.95214778	      6.47830274	     31.08483727	     42.35862286	      2.57682545	      2.83705961	      8.45126094	      4.33372653	     12.44600990	      2.00578246	      5.36554171	      1.70297515	     25.00520732	     25.00520732	      8.99960879	      8.99960879	     26.80425770	     26.80425770	    204.62241134	      1.95747935	     37.56078138	    -15.23703992	      5.03710282	     83.12991038	   -204.62241134	     -1.95747935	    -37.56078138	      0.16018463	     -6.97410547	     -0.89375837	     66.83539955	    -46.05343315	    -13.57123587	      4.64948003	     -1.21595536	     26.93743127	    -66.83539955	     46.05343315	     13.57123587	      0.60530100	      1.31762896	     -1.40379711	   -626.26830549	     37.39065354	    103.57609252	      0.14700676	     11.05891015	     -3.05556165	    626.26830549	    -37.39065354	   -103.57609252	     41.29236719	    -10.77663241	    253.51501929	    -50.47647709	     -8.38491659	    -14.94885266	      0.31201405	     -1.89092137	      0.00730329	     50.47647709	      8.38491659	     14.94885266	     -6.28014569	      1.25158168	     20.50337249	     43.52112879	     13.21085315	    830.74289031	    362.53229136	     40.35267932	      0.46455651	      0.00000000	      0.00000000	      0.00000000	      0.00000000	      0.00000000	   -110.00000000	      0.00000000	      0.03000000	     -0.03000000	      0.00000000
